<svg width="12" height="12" viewBox="0 0 12 12" fill="none" xmlns="http://www.w3.org/2000/svg">
<path fill-rule="evenodd" clip-rule="evenodd" d="M11.8567 6.38117L5.88976 11.8552C5.68876 12.0572 5.36276 12.0572 5.16076 11.8552C4.95976 11.6532 4.95976 11.3261 5.16076 11.1251L10.7367 6.01013L5.14477 0.881167C4.94377 0.679167 4.94377 0.352125 5.14477 0.151125C5.34577 -0.0498748 5.67177 -0.0508748 5.87377 0.151125L11.8417 5.62616C11.8487 5.63216 11.8457 5.64317 11.8517 5.64917C11.8537 5.65117 11.8568 5.64913 11.8578 5.65113C12.0598 5.85213 12.0597 6.17917 11.8567 6.38117ZM5.85778 5.64813C5.85978 5.65013 5.86274 5.64815 5.86474 5.65015C6.06574 5.85215 6.06574 6.17813 5.86474 6.38013L0.895745 10.8541C0.694745 11.0561 0.368741 11.0561 0.166741 10.8541C-0.0342588 10.6521 -0.0342588 10.3261 0.166741 10.1251L4.73675 6.01013L0.15075 1.88013C-0.05025 1.67913 -0.05025 1.35213 0.15075 1.15113C0.35275 0.949125 0.677754 0.949125 0.879754 1.15113L5.84875 5.62512C5.85475 5.63212 5.85178 5.64213 5.85778 5.64813Z" fill="black"/>
</svg>
