<svg width="24" height="22" viewBox="0 0 24 22" fill="none" xmlns="http://www.w3.org/2000/svg">
<path fill-rule="evenodd" clip-rule="evenodd" d="M0.823362 1.69231H22.2247C22.6791 1.69231 23.0479 1.31323 23.0479 0.846154C23.0479 0.379077 22.6791 0 22.2247 0H0.823362C0.370642 0 0.000232697 0.379077 0.000232697 0.846154C0.000232697 1.31323 0.370642 1.69231 0.823362 1.69231ZM22.2247 6.76923H7.4084C6.95568 6.76923 6.58527 7.14831 6.58527 7.61538C6.58527 8.08246 6.95568 8.46154 7.4084 8.46154H22.2247C22.6791 8.46154 23.0479 8.08246 23.0479 7.61538C23.0479 7.14662 22.6791 6.76923 22.2247 6.76923ZM22.2247 13.5367H0.823362C0.370642 13.5367 0.000232697 13.9158 0.000232697 14.3829C0.000232697 14.8499 0.370642 15.229 0.823362 15.229H22.2247C22.6791 15.229 23.0479 14.8499 23.0479 14.3829C23.0479 13.9158 22.6791 13.5367 22.2247 13.5367ZM22.2247 20.3077H9.87778C9.42506 20.3077 9.05465 20.6868 9.05465 21.1538C9.05465 21.6209 9.42506 22 9.87778 22H22.2247C22.6791 22 23.0479 21.6209 23.0479 21.1538C23.0479 20.6868 22.6791 20.3077 22.2247 20.3077Z" fill="#2A2A2A"/>
</svg>
