<svg width="28" height="25" viewBox="0 0 28 25" fill="none" xmlns="http://www.w3.org/2000/svg">
<path d="M27.4284 12.4362C27.4284 10.7651 26.077 9.43776 24.43 9.43776C23.652 9.4367 22.9036 9.7361 22.341 10.2735C20.2766 8.79868 17.45 7.84037 14.3042 7.71749L15.6803 1.27817L20.1534 2.23647C20.2028 3.36711 21.1365 4.27661 22.2919 4.27661C23.4715 4.27661 24.43 3.31831 24.43 2.13806C24.43 0.958465 23.4717 0 22.2919 0C21.4563 0 20.7187 0.491554 20.3747 1.2044L15.3857 0.147531C15.2382 0.122727 15.0906 0.147531 14.9922 0.221296C14.8693 0.295061 14.7957 0.417788 14.7714 0.565319L13.2471 7.74181C10.0522 7.84038 7.17649 8.79868 5.08755 10.2981C4.52491 9.76077 3.77648 9.46142 2.99844 9.46257C1.32713 9.46257 0 10.814 0 12.461C0 13.6897 0.73717 14.7218 1.76972 15.1892C1.71958 15.4897 1.6949 15.7939 1.69596 16.0985C1.69596 20.7187 7.07857 24.4794 13.7144 24.4794C20.3504 24.4794 25.733 20.7435 25.733 16.0985C25.7328 15.7939 25.7081 15.4898 25.6592 15.1892C26.6913 14.7218 27.4284 13.6649 27.4284 12.4362ZM6.83247 14.5743C6.83247 13.3947 7.79077 12.4362 8.97101 12.4362C10.1506 12.4362 11.1091 13.3945 11.1091 14.5743C11.1091 15.754 10.1508 16.7128 8.97101 16.7128C7.79093 16.737 6.83247 15.754 6.83247 14.5743ZM18.8019 20.2518C17.3273 21.7266 14.5253 21.825 13.7144 21.825C12.8788 21.825 10.077 21.7018 8.62651 20.2518C8.4057 20.0306 8.4057 19.6865 8.62651 19.4653C8.8478 19.2445 9.19183 19.2445 9.41312 19.4653C10.3473 20.3995 12.3135 20.7187 13.7144 20.7187C15.1154 20.7187 17.106 20.3993 18.0153 19.4653C18.2366 19.2445 18.5806 19.2445 18.8019 19.4653C18.9984 19.6865 18.9984 20.0306 18.8019 20.2518ZM18.4085 16.7371C17.2287 16.7371 16.2704 15.7788 16.2704 14.5991C16.2704 13.4193 17.2287 12.461 18.4085 12.461C19.5885 12.461 20.5468 13.4193 20.5468 14.5991C20.5468 15.7539 19.5885 16.7371 18.4085 16.7371Z" fill="white"/>
</svg>
