<svg width="25" height="25" viewBox="0 0 25 25" fill="none" xmlns="http://www.w3.org/2000/svg">
<path d="M10.3411 19.4711C5.29556 19.4711 1.21106 15.377 1.21106 10.3411C1.21106 5.29553 5.29556 1.21105 10.3411 1.21105C15.3867 1.21105 19.4712 5.29553 19.4712 10.3411C19.4712 15.377 15.3867 19.4711 10.3411 19.4711ZM24.113 23.4401L17.7989 17.1262C19.4327 15.329 20.4322 12.9551 20.4322 10.3411C20.4322 4.76695 15.9153 0.25 10.3411 0.25C4.76698 0.25 0.25 4.76695 0.25 10.3411C0.25 15.9152 4.76698 20.4321 10.3411 20.4321C12.9552 20.4321 15.3291 19.423 17.1262 17.7989L23.4404 24.1131C23.623 24.2957 23.9304 24.2957 24.113 24.1131C24.2957 23.9208 24.2957 23.6227 24.113 23.4401Z" fill="#2A2A2A" stroke="#2A2A2A" stroke-width="0.5"/>
</svg>
