<svg width="30" height="24" viewBox="0 0 30 24" fill="none" xmlns="http://www.w3.org/2000/svg">
<path d="M14.1014 6.38434L14.1644 7.42241L13.1152 7.2953C9.29603 6.80804 5.95953 5.15562 3.12666 2.38039L1.74169 1.00337L1.38496 2.02024C0.629528 4.28703 1.11217 6.68093 2.68599 8.29099C3.52536 9.18076 3.3365 9.30787 1.88858 8.77824C1.38496 8.60876 0.944292 8.48165 0.902324 8.54521C0.755434 8.6935 1.25906 10.6213 1.65776 11.384C2.20335 12.4432 3.31551 13.4813 4.5326 14.0957L5.56083 14.5829L4.34374 14.6041C3.16862 14.6041 3.12666 14.6253 3.25256 15.0702C3.67225 16.4472 5.33 17.909 7.17662 18.5445L8.47764 18.9894L7.34449 19.6673C5.66575 20.6418 3.69323 21.1926 1.72071 21.235C0.776418 21.2562 0 21.3409 0 21.4045C0 21.6163 2.56008 22.8027 4.04996 23.2687C8.51961 24.6458 13.8286 24.0526 17.8156 21.7011C20.6485 20.0274 23.4814 16.7014 24.8034 13.4813C25.5169 11.7653 26.2303 8.62995 26.2303 7.12582C26.2303 6.15131 26.2933 6.0242 27.4684 4.85903C28.1609 4.18111 28.8114 3.43964 28.9373 3.22779C29.1472 2.82527 29.1262 2.82527 28.056 3.18542C26.2723 3.82096 26.0205 3.73622 26.9018 2.7829C27.5523 2.10498 28.3288 0.876257 28.3288 0.516113C28.3288 0.452558 28.014 0.558483 27.6573 0.749147C27.2796 0.960997 26.4402 1.27877 25.8107 1.46944L24.6775 1.82958L23.6493 1.13048C23.0827 0.749147 22.2853 0.325448 21.8656 0.198339C20.7954 -0.0982505 19.1586 -0.0558806 18.1934 0.283079C15.5703 1.2364 13.9126 3.69385 14.1014 6.38434Z" fill="white"/>
</svg>
